<?xml version="1.0" encoding="UTF-8"?>
<svg width="800" height="400" viewBox="0 0 800 400" xmlns="http://www.w3.org/2000/svg">
  <defs>
    <linearGradient id="healthGrad" x1="0%" y1="0%" x2="100%" y2="100%">
      <stop offset="0%" style="stop-color:#EF4444;stop-opacity:1" />
      <stop offset="100%" style="stop-color:#B91C1C;stop-opacity:1" />
    </linearGradient>
  </defs>
  <rect width="800" height="400" fill="url(#healthGrad)"/>
  <rect x="50" y="50" width="700" height="300" fill="#B91C1C" rx="8"/>
  
  <!-- Health/Mental health icons -->
  <circle cx="150" cy="200" r="40" fill="#F87171"/>
  <path d="M150 180 C140 180 135 190 135 200 C135 210 140 220 150 220 C160 220 165 210 165 200 C165 190 160 180 150 180 Z" fill="#B91C1C"/>
  <circle cx="145" cy="195" r="2" fill="#F87171"/>
  <circle cx="155" cy="195" r="2" fill="#F87171"/>
  <path d="M140 205 Q150 210 160 205" stroke="#F87171" stroke-width="2" fill="none"/>
  
  <rect x="220" y="140" width="480" height="120" fill="#DC2626" rx="4"/>
  <text x="400" y="190" text-anchor="middle" fill="white" font-family="Arial, sans-serif" font-size="24" font-weight="bold">NAMI Support Groups</text>
  <text x="400" y="220" text-anchor="middle" fill="#FEE2E2" font-family="Arial, sans-serif" font-size="16">Mental Health &amp; Wellness</text>
</svg>
