<svg width="32" height="32" viewBox="0 0 32 32" fill="none" xmlns="http://www.w3.org/2000/svg">
  <!-- Heart shape -->
  <path d="M16 28.5C16 28.5 2 19 2 10.5C2 6.5 4.5 4 8 4C10.5 4 13 5.5 16 8.5C19 5.5 21.5 4 24 4C27.5 4 30 6.5 30 10.5C30 19 16 28.5 16 28.5Z" fill="#EF4444" stroke="#DC2626" stroke-width="1"/>
  
  <!-- People inside heart -->
  <!-- Person 1 (left) -->
  <circle cx="10" cy="12" r="1.5" fill="white"/>
  <path d="M10 14C8.5 14 7.5 15 7.5 16.5V19H12.5V16.5C12.5 15 11.5 14 10 14Z" fill="white"/>
  
  <!-- Person 2 (center) -->
  <circle cx="16" cy="12" r="1.5" fill="white"/>
  <path d="M16 14C14.5 14 13.5 15 13.5 16.5V19H18.5V16.5C18.5 15 17.5 14 16 14Z" fill="white"/>
  
  <!-- Person 3 (right) -->
  <circle cx="22" cy="12" r="1.5" fill="white"/>
  <path d="M22 14C20.5 14 19.5 15 19.5 16.5V19H24.5V16.5C24.5 15 23.5 14 22 14Z" fill="white"/>
  
  <!-- Connecting arms/hands -->
  <path d="M11.5 16L14.5 16M17.5 16L20.5 16" stroke="#EF4444" stroke-width="0.5" stroke-linecap="round"/>
</svg>
